<?xml version="1.0" encoding="UTF-8"?>
<!DOCTYPE svg PUBLIC "-//W3C//DTD SVG 1.1//EN" "http://www.w3.org/Graphics/SVG/1.1/DTD/svg11.dtd">
<!-- Creator: CorelDRAW X6 -->
<svg xmlns="http://www.w3.org/2000/svg" xml:space="preserve" width="93.1331mm" height="93.1332mm" version="1.1" style="shape-rendering:geometricPrecision; text-rendering:geometricPrecision; image-rendering:optimizeQuality; fill-rule:evenodd; clip-rule:evenodd"
viewBox="0 0 1730 1730"
 xmlns:xlink="http://www.w3.org/1999/xlink">
 <defs>
  <style type="text/css">
   <![CDATA[
    .fil0 {fill:#E31E24}
   ]]>
  </style>
 </defs>
 <g id="Layer_x0020_1">
  <metadata id="CorelCorpID_0Corel-Layer"/>
  <path class="fil0" d="M29 29l0 0c38,-38 101,-38 139,0l697 697 697 -697c38,-38 101,-38 139,0l0 0c38,38 38,101 0,139l-697 697 697 697c38,38 38,101 0,139l0 0c-38,38 -101,38 -139,0l-697 -697 -697 697c-38,38 -101,38 -139,0l0 0c-38,-38 -38,-101 0,-139l697 -697 -697 -697c-38,-38 -38,-101 0,-139z"/>
 </g>
</svg>
